<svg xmlns="http://www.w3.org/2000/svg" viewBox="0 0 14.1 80" aria-label="Maker"><path d="M3.45,16.52h7.28A3.25,3.25,0,0,1,13.91,18h0V14.31L3.11,9.16,14,3.8V0h0a3.14,3.14,0,0,1-2.63,1.48H3.79A4.86,4.86,0,0,1,0,.17H0V3.46H0A4.59,4.59,0,0,1,3.79,2l8.75-.06L.42,8v.43l12,5.74h-9A5.67,5.67,0,0,1,0,13.29H0v4.06H0A5.67,5.67,0,0,1,3.45,16.52Z" fill="currentColor"/><path d="M3.32,22.41a8.13,8.13,0,0,1-3.28-2H0v2.81H0c.63-.44,1.92-1,4.15,0l1.07.44v4.9L3.2,29.4A3.84,3.84,0,0,1,0,29.63H0v4.15H0a7.9,7.9,0,0,1,3.07-1.9l11-4.57V26.9Zm2.32,6V23.81l5.51,2.29Z" fill="currentColor"/><path d="M2.38,47.16l5.87-4.84L11.07,45a11,11,0,0,1,2.84,3.8h0v-3.3h0c-.59.48-1.45.19-2.88-1.17L6.88,40.42,0,46.09v3.63l0,0A10.11,10.11,0,0,1,2.38,47.16Z" fill="currentColor"/><path d="M3.45,40.08H10.5a5.52,5.52,0,0,1,3.41.84h0V36.85h0a5.68,5.68,0,0,1-3.41.84h-7A5.75,5.75,0,0,1,0,36.85H0v4.07H0A5.52,5.52,0,0,1,3.45,40.08Z" fill="currentColor"/><path d="M10.73,53.42H3.22A6.65,6.65,0,0,1,0,52.61H0V63.29l3.77.91L3.83,64C2.34,62.85.49,61.26.42,59.55L.28,55.84H6.84v1.79c0,1-1.26,1.9-1.92,2.59v.19h4.3v-.19c-.72-.71-2-1.59-2-2.59V55.84h6.44l-.13,3.52c0,.92-2,2.42-3,3.53l.06.17L14,62.24V52.61h0A6.65,6.65,0,0,1,10.73,53.42Z" fill="currentColor"/><path d="M10.5,68.36h-7A5.67,5.67,0,0,1,0,67.53H0v4.06H0a5.52,5.52,0,0,1,3.41-.83H6.73v1.81L0,76.33V80H.13c.5-1.09.92-1.52,2.52-2.42L7.09,75.1c.61,2.08,1.94,3,3.52,3,2,0,3.34-1.5,3.34-5.28V67.53h0A5.67,5.67,0,0,1,10.5,68.36Zm.13,7.33c-1.86,0-3.52-.68-3.52-3.3V70.76h6.44c0,.81,0,1.35,0,1.63C13.57,74.93,12.37,75.69,10.63,75.69Z" fill="currentColor"/></svg>
