<svg xmlns="http://www.w3.org/2000/svg" width="15.169" height="11.041" viewBox="0 0 15.169 11.041"><defs><style>.a{fill:#030303;}</style></defs><g transform="translate(-633.463 -6153.5)"><path class="a" d="M640.711,6154.219c-3.408,1.585-4.416,3.312-4.416,4.849,0,1.489.816,2.5,2.544,3.119a2.2,2.2,0,0,1-2.161,2.354c-1.679,0-3.215-1.393-3.215-3.938,0-3.119,2.832-5.9,6.96-7.1Zm7.921,0c-3.409,1.585-4.416,3.312-4.416,4.849,0,1.489.816,2.5,2.544,3.119a2.2,2.2,0,0,1-2.161,2.354c-1.679,0-3.215-1.393-3.215-3.938,0-3.119,2.832-5.9,6.96-7.1Z"/></g></svg>